<?xml version="1.0" encoding="utf-8"?>
<!-- Generator: Adobe Illustrator 16.0.0, SVG Export Plug-In . SVG Version: 6.00 Build 0)  -->
<!DOCTYPE svg PUBLIC "-//W3C//DTD SVG 1.1//EN" "http://www.w3.org/Graphics/SVG/1.1/DTD/svg11.dtd">
<svg version="1.1" id="Layer_1" xmlns="http://www.w3.org/2000/svg" xmlns:xlink="http://www.w3.org/1999/xlink" x="0px" y="0px"
	 width="576px" height="162.449px" viewBox="0 0 576 162.449" enable-background="new 0 0 576 162.449" xml:space="preserve">
<g>
	<g>
		<path fill="#FFFFFF" d="M55.235,77.584L34.616,9.883L13.802,77.584l-1.64,5.327l-7.404,24.097
			c-0.35,1.408-1.143,2.109-2.376,2.109c-1.587,0-2.382-0.788-2.382-2.366c0-0.395,0.052-0.691,0.153-0.892L32.317,2.083
			C32.71,0.694,33.593,0,34.969,0c1.373,0,2.305,0.689,2.796,2.069l31.822,103.837c0,0.1,0.027,0.221,0.077,0.367
			c0.046,0.146,0.072,0.267,0.072,0.364c0,0.68-0.294,1.266-0.887,1.753c-0.592,0.484-1.285,0.727-2.074,0.727
			c-1.183,0-1.977-0.64-2.369-1.923l-7.55-24.283"/>
	</g>
	<g>
		<path fill="#FFFFFF" d="M89.938,5.403c-0.494-0.539-0.741-1.16-0.741-1.849c0-0.69,0.247-1.311,0.741-1.852
			c0.493-0.542,1.137-0.813,1.926-0.813h57.891c1.775,0,2.665,0.842,2.665,2.517c0,1.875-0.89,2.813-2.665,2.813h-26.208v100.236
			c0,1.773-0.885,2.662-2.665,2.662c-1.772,0-2.664-0.889-2.664-2.662V6.219H91.864C91.075,6.219,90.432,5.947,89.938,5.403z"/>
	</g>
	<g>
		<path fill="#FFFFFF" d="M189.466,106.455V3.406c0-1.482,0.886-2.319,2.664-2.517h24.724c9.084,0,16.437,2.22,22.065,6.663
			c5.626,4.438,8.438,11.647,8.438,21.613c0,16.781-8.289,26.156-24.874,28.131l24.432,47.529c0.295,0.59,0.442,1.135,0.442,1.629
			c0,0.789-0.25,1.429-0.745,1.925c-0.489,0.495-1.131,0.737-1.922,0.737c-0.395,0-0.767-0.097-1.111-0.298
			c-0.343-0.194-0.689-0.54-1.031-1.033c-0.352-0.496-0.62-0.888-0.82-1.184l-0.592-1.628c-0.393-0.793-0.641-1.185-0.738-1.185
			l-23.691-46.198h-21.91v48.863c0,1.773-0.887,2.662-2.665,2.662S189.466,108.229,189.466,106.455z M194.795,52.264h22.059
			c7.795,0,13.945-1.875,18.437-5.629c4.49-3.746,6.735-9.567,6.735-17.469c0-7.894-2.245-13.696-6.735-17.395
			c-4.491-3.703-10.642-5.553-18.437-5.553h-22.059V52.264z"/>
	</g>
	<g>
		<path fill="#00709B" d="M284.475,106.455L303.474,3.406c0.307-1.675,1.35-2.517,3.129-2.517c1.772,0,2.508,0.842,2.199,2.517
			l-18.994,103.049c-0.33,1.773-1.38,2.662-3.159,2.662C284.875,109.117,284.148,108.229,284.475,106.455z"/>
		<path fill="#288B9E" d="M305.49,106.455L324.489,3.406c0.308-1.675,1.351-2.517,3.128-2.517c1.774,0,2.51,0.841,2.201,2.517
			l-18.996,103.049c-0.328,1.773-1.378,2.662-3.157,2.662C305.891,109.117,305.164,108.229,305.49,106.455z"/>
		<path fill="#73AC9E" d="M326.507,106.455L345.506,3.406c0.308-1.675,1.352-2.517,3.127-2.517c1.776,0,2.512,0.842,2.202,2.517
			l-18.997,103.049c-0.326,1.773-1.377,2.662-3.155,2.662C326.906,109.117,326.18,108.229,326.507,106.455z"/>
		<path fill="#B5DA9B" d="M347.523,106.455L366.522,3.406c0.308-1.675,1.353-2.517,3.125-2.517c1.779,0,2.515,0.842,2.204,2.517
			l-18.998,103.049c-0.325,1.773-1.376,2.662-3.154,2.662C347.923,109.117,347.196,108.229,347.523,106.455z"/>
	</g>
	<g>
		<path fill="#FFFFFF" d="M408.962,79.505V3.406c0-1.675,0.888-2.517,2.664-2.517c1.778,0,2.665,0.842,2.665,2.517v76.099
			c0,8.392,2.023,14.683,6.074,18.879c4.046,4.196,9.867,6.294,17.469,6.294c7.603,0,13.449-2.098,17.547-6.294
			c4.09-4.196,6.143-10.487,6.143-18.879V3.406c0-1.675,0.889-2.517,2.665-2.517s2.665,0.842,2.665,2.517v76.099
			c0,10.565-2.641,18.29-7.922,23.173c-5.283,4.885-12.314,7.329-21.098,7.329c-8.782,0-15.793-2.444-21.023-7.329
			C411.577,97.795,408.962,90.07,408.962,79.505z"/>
	</g>
	<g>
		<path fill="#FFFFFF" d="M503.896,106.455V3.406c0-1.675,0.891-2.517,2.668-2.517c1.082,0,2.609,1.775,4.584,5.329l28.727,56.561
			l28.869-56.561c1.977-3.554,3.506-5.329,4.591-5.329c1.778,0,2.665,0.842,2.665,2.517v103.049c0,1.773-0.887,2.662-2.665,2.662
			c-1.773,0-2.663-0.889-2.663-2.662V13.916l-27.985,53.895c-0.984,1.876-1.922,2.814-2.812,2.814c-0.99,0-1.922-0.938-2.813-2.814
			l-27.836-53.895v92.539c0,1.773-0.889,2.662-2.661,2.662C504.787,109.117,503.896,108.229,503.896,106.455z"/>
	</g>
	<g>
		<g>
			<path fill="#00709B" d="M166.058,145.824c0.674,0,1.297,0.117,1.871,0.35c0.573,0.232,1.07,0.57,1.491,1.016
				s0.75,0.992,0.986,1.643s0.355,1.396,0.355,2.238c0,0.176-0.026,0.297-0.079,0.359c-0.052,0.064-0.134,0.098-0.246,0.098h-8.638
				v0.229c0,0.898,0.104,1.688,0.313,2.369c0.208,0.682,0.505,1.254,0.89,1.715s0.851,0.809,1.396,1.041s1.155,0.348,1.828,0.348
				c0.602,0,1.123-0.066,1.564-0.197c0.44-0.133,0.812-0.281,1.112-0.445s0.54-0.313,0.716-0.445
				c0.177-0.133,0.305-0.199,0.385-0.199c0.104,0,0.185,0.041,0.241,0.121l0.313,0.385c-0.192,0.24-0.447,0.465-0.764,0.674
				c-0.317,0.209-0.67,0.387-1.059,0.535c-0.39,0.148-0.806,0.266-1.251,0.355c-0.445,0.088-0.893,0.131-1.342,0.131
				c-0.817,0-1.563-0.143-2.237-0.426c-0.674-0.285-1.252-0.701-1.734-1.246s-0.855-1.213-1.118-2.002
				c-0.264-0.791-0.396-1.695-0.396-2.713c0-0.859,0.122-1.65,0.367-2.377c0.244-0.725,0.597-1.352,1.059-1.877
				c0.461-0.523,1.026-0.936,1.696-1.232C164.447,145.973,165.207,145.824,166.058,145.824z M166.075,146.68
				c-0.616,0-1.169,0.096-1.657,0.287c-0.489,0.193-0.911,0.471-1.268,0.83c-0.356,0.361-0.645,0.795-0.865,1.301
				c-0.22,0.504-0.366,1.07-0.438,1.695h7.879c0-0.641-0.088-1.217-0.264-1.727c-0.177-0.51-0.425-0.939-0.745-1.293
				s-0.705-0.623-1.153-0.813C167.116,146.773,166.62,146.68,166.075,146.68z"/>
		</g>
		<g>
			<path fill="#00709B" d="M179.458,157.986h-1.01l-5.053-11.969h0.902c0.112,0,0.202,0.029,0.271,0.09s0.118,0.127,0.15,0.199
				l3.945,9.443c0.08,0.184,0.141,0.359,0.181,0.529c0.04,0.168,0.08,0.336,0.12,0.504c0.04-0.168,0.083-0.338,0.127-0.51
				c0.044-0.174,0.102-0.348,0.174-0.523l3.97-9.443c0.04-0.09,0.095-0.158,0.163-0.211c0.067-0.053,0.15-0.078,0.246-0.078h0.866
				L179.458,157.986z"/>
		</g>
		<g>
			<path fill="#00709B" d="M192.475,145.824c0.674,0,1.297,0.117,1.871,0.35c0.573,0.232,1.07,0.57,1.491,1.016
				s0.75,0.992,0.986,1.643s0.355,1.396,0.355,2.238c0,0.176-0.026,0.297-0.079,0.359c-0.052,0.064-0.134,0.098-0.246,0.098h-8.638
				v0.229c0,0.898,0.104,1.688,0.313,2.369c0.208,0.682,0.505,1.254,0.89,1.715s0.851,0.809,1.396,1.041s1.155,0.348,1.828,0.348
				c0.602,0,1.123-0.066,1.564-0.197c0.44-0.133,0.812-0.281,1.112-0.445s0.54-0.313,0.716-0.445
				c0.177-0.133,0.305-0.199,0.385-0.199c0.104,0,0.185,0.041,0.241,0.121l0.313,0.385c-0.192,0.24-0.447,0.465-0.764,0.674
				c-0.317,0.209-0.67,0.387-1.059,0.535c-0.39,0.148-0.806,0.266-1.251,0.355c-0.445,0.088-0.893,0.131-1.342,0.131
				c-0.817,0-1.563-0.143-2.237-0.426c-0.674-0.285-1.252-0.701-1.734-1.246s-0.855-1.213-1.118-2.002
				c-0.264-0.791-0.396-1.695-0.396-2.713c0-0.859,0.122-1.65,0.367-2.377c0.244-0.725,0.597-1.352,1.059-1.877
				c0.461-0.523,1.026-0.936,1.696-1.232C190.864,145.973,191.624,145.824,192.475,145.824z M192.492,146.68
				c-0.616,0-1.169,0.096-1.657,0.287c-0.489,0.193-0.911,0.471-1.268,0.83c-0.356,0.361-0.645,0.795-0.865,1.301
				c-0.22,0.504-0.366,1.07-0.438,1.695h7.879c0-0.641-0.088-1.217-0.264-1.727c-0.177-0.51-0.425-0.939-0.745-1.293
				s-0.705-0.623-1.153-0.813C193.533,146.773,193.037,146.68,192.492,146.68z"/>
		</g>
		<g>
			<path fill="#00709B" d="M201.461,157.986v-11.969h0.625c0.209,0,0.329,0.1,0.361,0.301l0.108,1.805
				c0.545-0.689,1.181-1.246,1.906-1.666c0.726-0.422,1.534-0.633,2.424-0.633c0.657,0,1.237,0.105,1.738,0.313
				c0.501,0.209,0.916,0.51,1.245,0.902c0.329,0.395,0.577,0.867,0.746,1.42c0.168,0.553,0.253,1.18,0.253,1.877v7.65h-1.144v-7.65
				c0-1.123-0.257-2.004-0.77-2.641c-0.514-0.637-1.299-0.957-2.357-0.957c-0.786,0-1.517,0.203-2.189,0.607
				c-0.674,0.406-1.275,0.961-1.805,1.666v8.975H201.461z"/>
		</g>
		<g>
			<path fill="#00709B" d="M218.939,158.18c-0.811,0-1.439-0.225-1.889-0.674s-0.674-1.143-0.674-2.082v-8.18h-1.72
				c-0.089,0-0.161-0.023-0.217-0.072c-0.057-0.049-0.084-0.115-0.084-0.205v-0.443l2.045-0.145l0.285-4.283
				c0.008-0.072,0.038-0.137,0.089-0.193c0.052-0.055,0.121-0.084,0.209-0.084h0.535v4.572h3.766v0.854h-3.766v8.121
				c0,0.328,0.042,0.611,0.127,0.848c0.084,0.236,0.2,0.432,0.349,0.582c0.148,0.154,0.322,0.266,0.523,0.338
				c0.2,0.072,0.417,0.107,0.649,0.107c0.289,0,0.537-0.041,0.746-0.125c0.208-0.084,0.389-0.178,0.541-0.277
				s0.276-0.193,0.373-0.277c0.096-0.084,0.172-0.125,0.229-0.125c0.064,0,0.128,0.039,0.192,0.119l0.313,0.506
				c-0.305,0.336-0.691,0.607-1.16,0.813C219.932,158.076,219.444,158.18,218.939,158.18z"/>
		</g>
		<g>
			<path fill="#00709B" d="M237.284,140.771c0.537,0,1.047,0.094,1.527,0.277c0.481,0.186,0.9,0.434,1.258,0.746
				c0.356,0.313,0.642,0.676,0.854,1.088c0.213,0.414,0.327,0.846,0.343,1.293c-0.112,0.025-0.212,0.049-0.301,0.072
				c-0.185,0.041-0.329,0.061-0.433,0.061c-0.064,0-0.125-0.023-0.181-0.072c-0.056-0.047-0.096-0.115-0.12-0.203
				c-0.057-0.209-0.152-0.449-0.289-0.723c-0.136-0.273-0.32-0.529-0.553-0.77c-0.233-0.24-0.523-0.445-0.872-0.613
				c-0.35-0.17-0.761-0.254-1.233-0.254c-0.481,0-0.919,0.074-1.312,0.223s-0.729,0.357-1.011,0.627
				c-0.28,0.268-0.499,0.586-0.655,0.955s-0.234,0.775-0.234,1.215c0,0.658,0.168,1.287,0.505,1.889s0.858,1.248,1.564,1.938
				l5.365,5.293c0.36-0.578,0.647-1.18,0.859-1.805c0.213-0.625,0.352-1.23,0.415-1.816c0.017-0.104,0.049-0.186,0.097-0.246
				s0.12-0.09,0.217-0.09h0.661c-0.016,0.754-0.158,1.529-0.427,2.326c-0.269,0.799-0.651,1.563-1.149,2.293l3.585,3.512h-1.07
				c-0.145,0-0.263-0.016-0.354-0.047c-0.093-0.033-0.199-0.105-0.319-0.217l-2.466-2.418c-0.361,0.416-0.758,0.801-1.191,1.154
				c-0.433,0.354-0.901,0.656-1.407,0.908c-0.505,0.252-1.045,0.451-1.618,0.596s-1.177,0.217-1.811,0.217
				c-0.602,0-1.194-0.102-1.78-0.301c-0.585-0.201-1.108-0.496-1.569-0.885c-0.462-0.389-0.835-0.865-1.119-1.432
				c-0.285-0.564-0.427-1.209-0.427-1.93c0-0.578,0.104-1.129,0.313-1.654c0.208-0.525,0.493-1.008,0.854-1.443
				c0.36-0.438,0.789-0.828,1.287-1.174c0.497-0.344,1.034-0.625,1.611-0.842c-0.569-0.643-0.996-1.266-1.281-1.871
				c-0.284-0.605-0.427-1.252-0.427-1.943c0-0.561,0.103-1.08,0.307-1.557c0.205-0.477,0.495-0.893,0.872-1.246
				c0.377-0.352,0.828-0.629,1.354-0.83C236.047,140.873,236.635,140.771,237.284,140.771z M231.799,153.561
				c0,0.617,0.118,1.154,0.354,1.611s0.543,0.84,0.92,1.148s0.796,0.539,1.258,0.691c0.461,0.152,0.916,0.229,1.365,0.229
				c0.562,0,1.093-0.063,1.594-0.191s0.971-0.307,1.407-0.535c0.438-0.229,0.838-0.5,1.203-0.813s0.7-0.658,1.005-1.035
				l-5.521-5.426c-0.049-0.039-0.093-0.084-0.133-0.131c-0.529,0.225-1.009,0.492-1.438,0.805c-0.429,0.314-0.792,0.66-1.089,1.041
				s-0.525,0.793-0.686,1.232C231.879,152.629,231.799,153.086,231.799,153.561z"/>
		</g>
		<g>
			<path fill="#00709B" d="M254.992,157.986v-11.969h0.625c0.209,0,0.329,0.1,0.361,0.301l0.108,1.732
				c0.232-0.33,0.48-0.631,0.745-0.902c0.265-0.273,0.548-0.508,0.849-0.705c0.301-0.195,0.621-0.348,0.962-0.457
				c0.341-0.107,0.7-0.162,1.077-0.162c0.874,0,1.571,0.256,2.093,0.764c0.521,0.51,0.874,1.219,1.059,2.123
				c0.145-0.496,0.347-0.926,0.606-1.287c0.261-0.359,0.559-0.658,0.895-0.895c0.337-0.236,0.703-0.414,1.1-0.529
				c0.396-0.117,0.803-0.176,1.219-0.176c0.593,0,1.125,0.1,1.598,0.295c0.473,0.197,0.875,0.488,1.207,0.873
				s0.587,0.857,0.763,1.42c0.176,0.561,0.265,1.201,0.265,1.924v7.65h-1.144v-7.65c0-1.17-0.252-2.063-0.758-2.676
				c-0.505-0.615-1.227-0.922-2.165-0.922c-0.417,0-0.816,0.076-1.197,0.229s-0.718,0.379-1.01,0.68
				c-0.293,0.301-0.525,0.676-0.698,1.125s-0.259,0.971-0.259,1.564v7.65h-1.143v-7.65c0-1.162-0.232-2.053-0.697-2.67
				c-0.466-0.619-1.144-0.928-2.033-0.928c-0.649,0-1.251,0.195-1.805,0.584s-1.047,0.928-1.479,1.619v9.045H254.992z"/>
		</g>
		<g>
			<path fill="#00709B" d="M279.845,145.824c0.674,0,1.297,0.117,1.871,0.35c0.573,0.232,1.07,0.57,1.491,1.016
				s0.75,0.992,0.986,1.643s0.355,1.396,0.355,2.238c0,0.176-0.026,0.297-0.079,0.359c-0.052,0.064-0.134,0.098-0.246,0.098h-8.638
				v0.229c0,0.898,0.104,1.688,0.313,2.369c0.208,0.682,0.505,1.254,0.89,1.715s0.851,0.809,1.396,1.041s1.155,0.348,1.828,0.348
				c0.602,0,1.123-0.066,1.564-0.197c0.44-0.133,0.812-0.281,1.112-0.445s0.54-0.313,0.716-0.445
				c0.177-0.133,0.305-0.199,0.385-0.199c0.104,0,0.185,0.041,0.241,0.121l0.313,0.385c-0.192,0.24-0.447,0.465-0.764,0.674
				c-0.317,0.209-0.67,0.387-1.059,0.535c-0.39,0.148-0.806,0.266-1.251,0.355c-0.445,0.088-0.893,0.131-1.342,0.131
				c-0.817,0-1.563-0.143-2.237-0.426c-0.674-0.285-1.252-0.701-1.734-1.246s-0.855-1.213-1.118-2.002
				c-0.264-0.791-0.396-1.695-0.396-2.713c0-0.859,0.122-1.65,0.367-2.377c0.244-0.725,0.597-1.352,1.059-1.877
				c0.461-0.523,1.026-0.936,1.696-1.232C278.234,145.973,278.994,145.824,279.845,145.824z M279.862,146.68
				c-0.616,0-1.169,0.096-1.657,0.287c-0.489,0.193-0.911,0.471-1.268,0.83c-0.356,0.361-0.645,0.795-0.865,1.301
				c-0.22,0.504-0.366,1.07-0.438,1.695h7.879c0-0.641-0.088-1.217-0.264-1.727c-0.177-0.51-0.425-0.939-0.745-1.293
				s-0.705-0.623-1.153-0.813C280.903,146.773,280.407,146.68,279.862,146.68z"/>
		</g>
		<g>
			<path fill="#00709B" d="M293.342,145.824c0.674,0,1.297,0.117,1.871,0.35c0.573,0.232,1.07,0.57,1.491,1.016
				s0.75,0.992,0.986,1.643s0.355,1.396,0.355,2.238c0,0.176-0.026,0.297-0.079,0.359c-0.052,0.064-0.134,0.098-0.246,0.098h-8.638
				v0.229c0,0.898,0.104,1.688,0.313,2.369c0.208,0.682,0.505,1.254,0.89,1.715s0.851,0.809,1.396,1.041s1.155,0.348,1.828,0.348
				c0.602,0,1.123-0.066,1.564-0.197c0.44-0.133,0.812-0.281,1.112-0.445s0.54-0.313,0.716-0.445
				c0.177-0.133,0.305-0.199,0.385-0.199c0.104,0,0.185,0.041,0.241,0.121l0.313,0.385c-0.192,0.24-0.447,0.465-0.764,0.674
				c-0.317,0.209-0.67,0.387-1.059,0.535c-0.39,0.148-0.806,0.266-1.251,0.355c-0.445,0.088-0.893,0.131-1.342,0.131
				c-0.817,0-1.563-0.143-2.237-0.426c-0.674-0.285-1.252-0.701-1.734-1.246s-0.855-1.213-1.118-2.002
				c-0.264-0.791-0.396-1.695-0.396-2.713c0-0.859,0.122-1.65,0.367-2.377c0.244-0.725,0.597-1.352,1.059-1.877
				c0.461-0.523,1.026-0.936,1.696-1.232C291.731,145.973,292.491,145.824,293.342,145.824z M293.359,146.68
				c-0.616,0-1.169,0.096-1.657,0.287c-0.489,0.193-0.911,0.471-1.268,0.83c-0.356,0.361-0.645,0.795-0.865,1.301
				c-0.22,0.504-0.366,1.07-0.438,1.695h7.879c0-0.641-0.088-1.217-0.264-1.727c-0.177-0.51-0.425-0.939-0.745-1.293
				s-0.705-0.623-1.153-0.813C294.4,146.773,293.904,146.68,293.359,146.68z"/>
		</g>
		<g>
			<path fill="#00709B" d="M305.588,158.18c-0.811,0-1.439-0.225-1.889-0.674s-0.674-1.143-0.674-2.082v-8.18h-1.72
				c-0.089,0-0.161-0.023-0.217-0.072c-0.057-0.049-0.084-0.115-0.084-0.205v-0.443l2.045-0.145l0.285-4.283
				c0.008-0.072,0.038-0.137,0.089-0.193c0.052-0.055,0.121-0.084,0.209-0.084h0.535v4.572h3.766v0.854h-3.766v8.121
				c0,0.328,0.042,0.611,0.127,0.848c0.084,0.236,0.2,0.432,0.349,0.582c0.148,0.154,0.322,0.266,0.523,0.338
				c0.2,0.072,0.417,0.107,0.649,0.107c0.289,0,0.537-0.041,0.746-0.125c0.208-0.084,0.389-0.178,0.541-0.277
				s0.276-0.193,0.373-0.277c0.096-0.084,0.172-0.125,0.229-0.125c0.064,0,0.128,0.039,0.192,0.119l0.313,0.506
				c-0.305,0.336-0.691,0.607-1.16,0.813C306.58,158.076,306.093,158.18,305.588,158.18z"/>
		</g>
		<g>
			<path fill="#00709B" d="M314.093,141.891c0,0.145-0.03,0.279-0.09,0.404c-0.061,0.123-0.139,0.234-0.234,0.33
				c-0.097,0.096-0.209,0.172-0.337,0.229c-0.129,0.057-0.265,0.084-0.409,0.084s-0.281-0.027-0.409-0.084s-0.24-0.133-0.337-0.229
				c-0.096-0.096-0.173-0.207-0.229-0.33c-0.057-0.125-0.084-0.26-0.084-0.404s0.027-0.283,0.084-0.414
				c0.056-0.133,0.133-0.248,0.229-0.344c0.097-0.096,0.209-0.172,0.337-0.229s0.265-0.084,0.409-0.084s0.28,0.027,0.409,0.084
				c0.128,0.057,0.24,0.133,0.337,0.229c0.096,0.096,0.174,0.211,0.234,0.344C314.063,141.607,314.093,141.746,314.093,141.891z
				 M313.588,146.018v11.969h-1.143v-11.969H313.588z"/>
		</g>
		<g>
			<path fill="#00709B" d="M319.025,157.986v-11.969h0.625c0.209,0,0.329,0.1,0.361,0.301l0.108,1.805
				c0.545-0.689,1.181-1.246,1.906-1.666c0.726-0.422,1.534-0.633,2.424-0.633c0.657,0,1.237,0.105,1.738,0.313
				c0.501,0.209,0.916,0.51,1.245,0.902c0.329,0.395,0.577,0.867,0.746,1.42c0.168,0.553,0.253,1.18,0.253,1.877v7.65h-1.144v-7.65
				c0-1.123-0.257-2.004-0.77-2.641c-0.514-0.637-1.299-0.957-2.357-0.957c-0.786,0-1.517,0.203-2.189,0.607
				c-0.674,0.406-1.275,0.961-1.805,1.666v8.975H319.025z"/>
		</g>
		<g>
			<path fill="#00709B" d="M337.189,145.813c0.521,0,1.005,0.064,1.449,0.193c0.445,0.127,0.845,0.309,1.197,0.541h3.067v0.396
				c0,0.201-0.112,0.309-0.337,0.324l-1.816,0.133c0.225,0.305,0.397,0.648,0.518,1.029s0.181,0.787,0.181,1.221
				c0,0.578-0.104,1.1-0.313,1.57c-0.209,0.469-0.5,0.869-0.873,1.203c-0.372,0.332-0.819,0.59-1.341,0.775
				c-0.521,0.184-1.099,0.277-1.732,0.277c-0.689,0-1.315-0.105-1.877-0.314c-0.337,0.193-0.602,0.422-0.794,0.686
				c-0.192,0.266-0.288,0.521-0.288,0.771c0,0.344,0.12,0.609,0.36,0.793c0.241,0.186,0.56,0.318,0.957,0.404
				c0.396,0.084,0.85,0.137,1.359,0.162c0.509,0.023,1.026,0.049,1.552,0.078c0.524,0.027,1.042,0.078,1.552,0.15
				c0.509,0.072,0.962,0.197,1.359,0.379c0.396,0.18,0.716,0.432,0.956,0.758c0.24,0.324,0.361,0.756,0.361,1.293
				c0,0.496-0.125,0.975-0.373,1.432c-0.249,0.457-0.607,0.861-1.077,1.215c-0.469,0.354-1.036,0.635-1.702,0.848
				s-1.411,0.318-2.237,0.318c-0.842,0-1.58-0.086-2.214-0.258s-1.165-0.404-1.594-0.697s-0.752-0.633-0.969-1.018
				c-0.216-0.385-0.324-0.793-0.324-1.227c0-0.633,0.208-1.18,0.625-1.637s0.991-0.809,1.721-1.059
				c-0.401-0.135-0.72-0.332-0.956-0.59c-0.237-0.256-0.355-0.613-0.355-1.07c0-0.168,0.032-0.344,0.097-0.529
				c0.063-0.184,0.16-0.367,0.288-0.547c0.129-0.18,0.283-0.352,0.464-0.512s0.391-0.305,0.631-0.432
				c-0.569-0.33-1.012-0.766-1.329-1.313c-0.316-0.545-0.475-1.182-0.475-1.912c0-0.578,0.102-1.102,0.307-1.57
				c0.204-0.469,0.493-0.871,0.866-1.209c0.373-0.336,0.824-0.598,1.354-0.781C335.963,145.904,336.548,145.813,337.189,145.813z
				 M341.629,158.793c0-0.377-0.099-0.68-0.295-0.908c-0.197-0.229-0.459-0.406-0.788-0.535s-0.708-0.219-1.137-0.271
				c-0.43-0.051-0.878-0.09-1.348-0.113c-0.469-0.025-0.94-0.049-1.413-0.072c-0.474-0.025-0.914-0.072-1.323-0.145
				c-0.306,0.119-0.588,0.258-0.849,0.414s-0.483,0.334-0.667,0.529c-0.185,0.197-0.329,0.414-0.434,0.65s-0.156,0.494-0.156,0.775
				c0,0.354,0.09,0.68,0.271,0.98s0.445,0.563,0.794,0.783c0.349,0.219,0.776,0.395,1.281,0.521
				c0.505,0.129,1.087,0.193,1.744,0.193c0.609,0,1.177-0.068,1.702-0.205s0.982-0.328,1.372-0.576
				c0.389-0.25,0.693-0.547,0.914-0.891C341.519,159.578,341.629,159.201,341.629,158.793z M337.189,152.693
				c0.514,0,0.971-0.074,1.371-0.223c0.401-0.148,0.738-0.354,1.011-0.619c0.272-0.264,0.479-0.582,0.62-0.951
				c0.14-0.367,0.21-0.777,0.21-1.227s-0.072-0.859-0.217-1.232c-0.144-0.373-0.354-0.691-0.631-0.957
				c-0.277-0.264-0.614-0.469-1.011-0.613c-0.397-0.145-0.849-0.217-1.354-0.217s-0.958,0.072-1.359,0.217s-0.74,0.35-1.017,0.613
				c-0.276,0.266-0.487,0.584-0.632,0.957c-0.144,0.373-0.216,0.783-0.216,1.232s0.072,0.859,0.216,1.227
				c0.145,0.369,0.355,0.688,0.632,0.951c0.276,0.266,0.615,0.471,1.017,0.619S336.685,152.693,337.189,152.693z"/>
		</g>
		<g>
			<path fill="#00709B" d="M359.022,147.51c-0.056,0.111-0.145,0.168-0.265,0.168c-0.088,0-0.202-0.051-0.343-0.15
				s-0.325-0.213-0.554-0.338c-0.229-0.123-0.509-0.236-0.842-0.336s-0.739-0.15-1.221-0.15c-0.434,0-0.828,0.063-1.186,0.186
				c-0.356,0.125-0.661,0.291-0.914,0.498c-0.252,0.209-0.449,0.449-0.589,0.727c-0.141,0.275-0.211,0.564-0.211,0.869
				c0,0.377,0.097,0.688,0.289,0.936s0.444,0.461,0.758,0.637c0.313,0.176,0.667,0.328,1.064,0.455
				c0.396,0.129,0.804,0.256,1.221,0.385s0.824,0.271,1.222,0.428c0.396,0.156,0.751,0.35,1.064,0.582
				c0.313,0.234,0.565,0.518,0.758,0.855c0.192,0.336,0.288,0.746,0.288,1.227c0,0.521-0.094,1.006-0.282,1.455
				s-0.461,0.838-0.818,1.168c-0.356,0.328-0.796,0.588-1.317,0.781c-0.521,0.193-1.114,0.289-1.78,0.289
				c-0.842,0-1.567-0.135-2.177-0.404c-0.61-0.268-1.155-0.619-1.637-1.051l0.277-0.41c0.04-0.064,0.084-0.111,0.132-0.145
				c0.048-0.031,0.116-0.047,0.205-0.047c0.104,0,0.232,0.063,0.385,0.191s0.351,0.268,0.596,0.416
				c0.244,0.148,0.549,0.285,0.914,0.414c0.364,0.129,0.815,0.193,1.354,0.193c0.505,0,0.95-0.07,1.335-0.211
				s0.705-0.332,0.962-0.572s0.451-0.523,0.584-0.848c0.132-0.324,0.198-0.668,0.198-1.029c0-0.4-0.096-0.732-0.289-0.998
				c-0.192-0.264-0.444-0.488-0.758-0.674c-0.313-0.184-0.667-0.34-1.064-0.469c-0.396-0.129-0.806-0.256-1.227-0.385
				s-0.83-0.27-1.228-0.422c-0.396-0.152-0.752-0.344-1.064-0.576s-0.565-0.516-0.758-0.848c-0.192-0.334-0.289-0.748-0.289-1.246
				c0-0.424,0.093-0.834,0.277-1.227c0.184-0.393,0.446-0.738,0.788-1.035c0.34-0.297,0.755-0.533,1.244-0.709
				c0.489-0.178,1.039-0.266,1.648-0.266c0.729,0,1.378,0.105,1.943,0.318c0.565,0.211,1.084,0.533,1.558,0.969L359.022,147.51z"/>
		</g>
		<g>
			<path fill="#00709B" d="M363.979,162.221v-16.203h0.625c0.104,0,0.188,0.021,0.253,0.066c0.063,0.043,0.1,0.121,0.108,0.234
				l0.108,1.852c0.529-0.721,1.148-1.295,1.858-1.719c0.71-0.426,1.506-0.639,2.388-0.639c1.476,0,2.622,0.51,3.44,1.527
				c0.818,1.02,1.228,2.547,1.228,4.584c0,0.875-0.114,1.689-0.344,2.447c-0.229,0.758-0.563,1.416-1.004,1.975
				c-0.441,0.557-0.984,0.996-1.63,1.316s-1.39,0.48-2.231,0.48c-0.818,0-1.524-0.148-2.117-0.445
				c-0.594-0.295-1.107-0.736-1.54-1.322v5.846H363.979z M368.995,146.738c-0.794,0-1.514,0.207-2.159,0.621
				c-0.646,0.412-1.217,0.988-1.714,1.725v6.281c0.457,0.689,0.964,1.174,1.521,1.455s1.193,0.42,1.907,0.42
				c0.705,0,1.323-0.127,1.853-0.385c0.529-0.256,0.972-0.619,1.329-1.088c0.356-0.469,0.625-1.031,0.806-1.684
				c0.181-0.654,0.271-1.375,0.271-2.16c0-1.781-0.326-3.09-0.98-3.928C371.175,147.158,370.23,146.738,368.995,146.738z"/>
		</g>
		<g>
			<path fill="#00709B" d="M385.692,157.986c-0.241,0-0.39-0.111-0.445-0.336l-0.168-1.527c-0.329,0.32-0.656,0.609-0.98,0.865
				c-0.325,0.256-0.664,0.473-1.017,0.65c-0.354,0.176-0.734,0.311-1.144,0.402c-0.408,0.092-0.857,0.139-1.347,0.139
				c-0.409,0-0.807-0.061-1.191-0.182c-0.385-0.119-0.726-0.305-1.022-0.553s-0.535-0.566-0.716-0.957
				c-0.181-0.389-0.271-0.855-0.271-1.4c0-0.506,0.145-0.975,0.434-1.408c0.288-0.432,0.739-0.809,1.353-1.131
				c0.614-0.32,1.403-0.576,2.37-0.77c0.967-0.191,2.127-0.305,3.482-0.336v-1.252c0-1.107-0.238-1.959-0.716-2.557
				c-0.477-0.598-1.185-0.896-2.123-0.896c-0.577,0-1.068,0.08-1.474,0.242c-0.405,0.16-0.748,0.336-1.028,0.529
				c-0.281,0.191-0.51,0.367-0.686,0.529c-0.177,0.16-0.325,0.24-0.445,0.24c-0.16,0-0.281-0.072-0.361-0.217l-0.204-0.35
				c0.626-0.625,1.283-1.098,1.973-1.42c0.689-0.32,1.472-0.48,2.346-0.48c0.642,0,1.203,0.102,1.685,0.307s0.88,0.498,1.197,0.879
				c0.316,0.381,0.555,0.842,0.716,1.383c0.16,0.541,0.24,1.145,0.24,1.811v7.795H385.692z M380.88,157.35
				c0.466,0,0.893-0.051,1.281-0.15c0.39-0.1,0.75-0.24,1.083-0.422c0.333-0.18,0.644-0.395,0.933-0.643
				c0.288-0.248,0.573-0.518,0.854-0.807v-3.115c-1.139,0.031-2.119,0.117-2.941,0.258c-0.821,0.141-1.499,0.332-2.032,0.572
				c-0.534,0.24-0.927,0.527-1.18,0.859c-0.252,0.334-0.379,0.713-0.379,1.137c0,0.402,0.066,0.748,0.199,1.041
				c0.132,0.293,0.307,0.533,0.522,0.723c0.217,0.188,0.47,0.326,0.759,0.414C380.267,157.305,380.567,157.35,380.88,157.35z"/>
		</g>
		<g>
			<path fill="#00709B" d="M398.841,147.617c-0.04,0.041-0.078,0.074-0.114,0.102c-0.036,0.029-0.086,0.043-0.15,0.043
				c-0.08,0-0.19-0.055-0.331-0.162c-0.14-0.109-0.326-0.227-0.559-0.355c-0.233-0.129-0.523-0.246-0.872-0.355
				c-0.35-0.107-0.772-0.162-1.27-0.162c-0.689,0-1.302,0.123-1.835,0.367s-0.982,0.596-1.347,1.053
				c-0.365,0.457-0.644,1.01-0.836,1.66c-0.193,0.65-0.289,1.379-0.289,2.189c0,0.842,0.098,1.588,0.295,2.238
				c0.196,0.648,0.475,1.195,0.836,1.641c0.36,0.445,0.798,0.785,1.312,1.018c0.513,0.232,1.082,0.348,1.708,0.348
				c0.577,0,1.061-0.066,1.449-0.203s0.71-0.285,0.963-0.445c0.252-0.16,0.453-0.309,0.602-0.445
				c0.147-0.137,0.266-0.205,0.354-0.205c0.104,0,0.185,0.041,0.24,0.121l0.313,0.385c-0.185,0.24-0.417,0.465-0.698,0.674
				c-0.28,0.209-0.598,0.389-0.95,0.541s-0.736,0.271-1.148,0.355c-0.413,0.084-0.845,0.125-1.294,0.125
				c-0.762,0-1.457-0.139-2.087-0.414c-0.63-0.277-1.171-0.678-1.624-1.203s-0.806-1.17-1.059-1.932s-0.379-1.627-0.379-2.598
				c0-0.914,0.12-1.748,0.361-2.502c0.24-0.754,0.591-1.404,1.052-1.949c0.462-0.545,1.027-0.969,1.696-1.27
				c0.67-0.301,1.438-0.451,2.304-0.451c0.778,0,1.47,0.125,2.075,0.373c0.605,0.25,1.133,0.586,1.582,1.012L398.841,147.617z"/>
		</g>
		<g>
			<path fill="#00709B" d="M407.622,145.824c0.674,0,1.297,0.117,1.871,0.35c0.573,0.232,1.07,0.57,1.491,1.016
				s0.75,0.992,0.986,1.643s0.355,1.396,0.355,2.238c0,0.176-0.026,0.297-0.079,0.359c-0.052,0.064-0.134,0.098-0.246,0.098h-8.638
				v0.229c0,0.898,0.104,1.688,0.313,2.369c0.208,0.682,0.505,1.254,0.89,1.715s0.851,0.809,1.396,1.041s1.155,0.348,1.828,0.348
				c0.602,0,1.123-0.066,1.564-0.197c0.44-0.133,0.812-0.281,1.112-0.445s0.54-0.313,0.716-0.445
				c0.177-0.133,0.305-0.199,0.385-0.199c0.104,0,0.185,0.041,0.241,0.121l0.313,0.385c-0.192,0.24-0.447,0.465-0.764,0.674
				c-0.317,0.209-0.67,0.387-1.059,0.535c-0.39,0.148-0.806,0.266-1.251,0.355c-0.445,0.088-0.893,0.131-1.342,0.131
				c-0.817,0-1.563-0.143-2.237-0.426c-0.674-0.285-1.252-0.701-1.734-1.246s-0.855-1.213-1.118-2.002
				c-0.264-0.791-0.396-1.695-0.396-2.713c0-0.859,0.122-1.65,0.367-2.377c0.244-0.725,0.597-1.352,1.059-1.877
				c0.461-0.523,1.026-0.936,1.696-1.232C406.012,145.973,406.771,145.824,407.622,145.824z M407.64,146.68
				c-0.616,0-1.169,0.096-1.657,0.287c-0.489,0.193-0.911,0.471-1.268,0.83c-0.356,0.361-0.645,0.795-0.865,1.301
				c-0.22,0.504-0.366,1.07-0.438,1.695h7.879c0-0.641-0.088-1.217-0.264-1.727c-0.177-0.51-0.425-0.939-0.745-1.293
				s-0.705-0.623-1.153-0.813C408.681,146.773,408.185,146.68,407.64,146.68z"/>
		</g>
	</g>
	<g>
		<g>
			<path fill="#FFFFFF" d="M22.156,76.874c-0.043-0.051-0.064-0.112-0.064-0.184c0-0.072,0.021-0.134,0.064-0.185
				c0.044-0.05,0.098-0.075,0.163-0.075h4.28c0.151,0,0.228,0.083,0.228,0.249c0,0.18-0.076,0.27-0.228,0.27H24.74v7.145
				c0,0.16-0.09,0.238-0.271,0.238c-0.18,0-0.27-0.078-0.27-0.238v-7.145h-1.881C22.254,76.949,22.2,76.924,22.156,76.874z"/>
		</g>
		<g>
			<path fill="#FFFFFF" d="M32.492,84.094v-7.437c0-0.151,0.09-0.227,0.27-0.227c0.181,0,0.271,0.075,0.271,0.227v3.33h3.297v-3.33
				c0-0.151,0.091-0.227,0.271-0.227s0.271,0.075,0.271,0.227v7.437c0,0.16-0.091,0.238-0.271,0.238s-0.271-0.078-0.271-0.238v-3.61
				h-3.297v3.61c0,0.16-0.09,0.238-0.271,0.238C32.582,84.332,32.492,84.254,32.492,84.094z"/>
		</g>
		<g>
			<path fill="#FFFFFF" d="M43.227,84.094v-7.426c0-0.158,0.086-0.237,0.259-0.237h3.849c0.151,0,0.228,0.083,0.228,0.249
				c0,0.071-0.022,0.135-0.065,0.188c-0.043,0.055-0.098,0.081-0.162,0.081h-3.567v3.179h1.719c0.065,0,0.119,0.025,0.162,0.075
				c0.043,0.051,0.065,0.112,0.065,0.185c0,0.158-0.076,0.237-0.228,0.237h-1.719v3.19h3.567c0.064,0,0.119,0.025,0.162,0.08
				s0.065,0.117,0.065,0.189c0,0.166-0.076,0.248-0.228,0.248h-3.849C43.313,84.332,43.227,84.254,43.227,84.094z"/>
		</g>
	</g>
</g>
</svg>
