<svg enable-background="new 0 0 266.409 75.134" height="75.134" viewBox="0 0 266.409 75.134" width="266.409" xmlns="http://www.w3.org/2000/svg"><path d="m25.547 35.884-9.538-31.313-9.626 31.313-.758 2.464-3.425 11.145c-.162.651-.529.976-1.101.976-.734 0-1.1-.364-1.1-1.095 0-.183.022-.32.069-.412l14.878-47.999c.182-.642.591-.963 1.227-.963.635 0 1.066.319 1.293.957l14.72 48.026c0 .046.011.103.034.17.022.066.034.123.034.168 0 .314-.137.586-.41.812-.274.224-.595.336-.959.336-.548 0-.914-.296-1.096-.89l-3.493-11.231" fill="#fff"/><path d="m41.598 2.499c-.229-.25-.343-.536-.343-.855s.114-.605.343-.855c.228-.252.524-.377.89-.377h26.776c.821 0 1.232.389 1.232 1.164 0 .867-.411 1.301-1.232 1.301h-12.121v46.361c0 .82-.411 1.231-1.232 1.231s-1.233-.411-1.233-1.231v-46.362h-12.191c-.365 0-.662-.125-.889-.377z" fill="#fff"/><path d="m87.63 49.237v-47.662c0-.686.411-1.072 1.232-1.164h11.437c4.2 0 7.602 1.027 10.204 3.082 2.602 2.053 3.902 5.387 3.902 9.997 0 7.762-3.834 12.098-11.505 13.011l11.3 21.982c.137.273.205.525.205.754 0 .365-.114.661-.343.89-.228.229-.524.342-.89.342-.183 0-.354-.045-.514-.138-.16-.09-.32-.25-.479-.479-.16-.229-.285-.41-.377-.547l-.273-.754c-.183-.365-.297-.547-.343-.547l-10.956-21.366h-10.135v22.6c0 .82-.411 1.231-1.232 1.231s-1.233-.411-1.233-1.232zm2.465-25.064h10.204c3.605 0 6.448-.867 8.526-2.603 2.075-1.733 3.115-4.427 3.115-8.08 0-3.651-1.04-6.335-3.115-8.046-2.078-1.713-4.921-2.568-8.526-2.568h-10.204z" fill="#fff"/><path d="m131.574 49.237 8.786-47.662c.143-.775.625-1.164 1.447-1.164.821 0 1.161.389 1.018 1.164l-8.785 47.662c-.152.82-.638 1.231-1.46 1.231-.821.001-1.157-.41-1.006-1.231z" fill="#00709b"/><path d="m141.295 49.237 8.785-47.662c.144-.775.625-1.164 1.447-1.164.82 0 1.161.389 1.018 1.164l-8.785 47.662c-.151.82-.638 1.23-1.461 1.23-.82.001-1.156-.409-1.004-1.23z" fill="#288b9e"/><path d="m151.016 49.237 8.786-47.662c.143-.775.625-1.164 1.446-1.164s1.161.389 1.019 1.164l-8.786 47.662c-.151.82-.637 1.231-1.46 1.231-.822.001-1.158-.41-1.005-1.231z" fill="#73ac9e"/><path d="m160.736 49.237 8.786-47.662c.143-.775.625-1.164 1.446-1.164s1.161.389 1.019 1.164l-8.786 47.662c-.151.82-.638 1.231-1.46 1.231-.821.001-1.157-.41-1.005-1.231z" fill="#b5da9b"/><path d="m189.152 36.772v-35.197c0-.775.41-1.164 1.23-1.164.823 0 1.234.389 1.234 1.164v35.197c0 3.881.936 6.791 2.808 8.732 1.871 1.94 4.564 2.91 8.08 2.91s6.221-.97 8.115-2.91c1.894-1.941 2.842-4.852 2.842-8.732v-35.197c0-.775.411-1.164 1.232-1.164s1.232.389 1.232 1.164v35.197c0 4.887-1.221 8.459-3.663 10.718-2.443 2.26-5.696 3.39-9.759 3.39s-7.305-1.13-9.725-3.39c-2.418-2.259-3.626-5.831-3.626-10.718z" fill="#fff"/><path d="m233.061 49.237v-47.662c0-.775.411-1.164 1.233-1.164.501 0 1.208.821 2.122 2.465l13.285 26.16 13.354-26.16c.912-1.644 1.62-2.465 2.123-2.465.821 0 1.231.389 1.231 1.164v47.662c0 .82-.41 1.231-1.231 1.231s-1.233-.411-1.233-1.231v-42.8l-12.942 24.927c-.456.868-.89 1.302-1.301 1.302-.457 0-.89-.434-1.302-1.302l-12.875-24.927v42.801c0 .82-.41 1.231-1.231 1.231-.822 0-1.233-.411-1.233-1.232z" fill="#fff"/><g fill="#b5da9b"><path d="m76.805 67.444c.311 0 .6.055.865.162.264.107.494.264.689.47.193.206.346.459.455.759.109.301.164.646.164 1.035 0 .082-.012.138-.035.168-.023.029-.062.044-.113.044h-3.996v.105c0 .415.049.781.145 1.097.098.314.234.579.412.793.178.213.393.373.645.48.254.107.535.162.846.162.279 0 .52-.031.725-.092.203-.062.375-.131.514-.207.139-.075.25-.145.332-.205s.141-.092.178-.092c.049 0 .086.019.111.056l.145.178c-.09.111-.207.216-.354.312-.146.097-.311.18-.49.248s-.371.123-.578.164c-.205.041-.412.061-.621.061-.377 0-.723-.065-1.033-.197-.312-.131-.58-.323-.803-.576-.223-.252-.396-.561-.518-.926s-.184-.783-.184-1.255c0-.396.057-.763.17-1.099s.277-.625.49-.868.475-.433.785-.57c.308-.138.659-.207 1.054-.207zm.007.396c-.285 0-.541.044-.768.134-.227.088-.422.217-.586.383-.164.168-.299.367-.4.602s-.168.495-.203.785h3.645c0-.297-.039-.563-.121-.799s-.197-.436-.346-.598c-.146-.164-.324-.289-.533-.377-.207-.086-.436-.13-.688-.13z"/><path d="m83.002 73.069h-.467l-2.338-5.535h.418c.053 0 .094.014.125.041s.055.059.07.092l1.824 4.368c.037.085.064.167.084.245.018.077.037.155.055.232.02-.077.039-.156.059-.236.021-.079.049-.16.082-.241l1.836-4.368c.018-.041.043-.072.074-.098.031-.023.07-.035.115-.035h.4z"/><path d="m89.023 67.444c.311 0 .6.055.865.162.264.107.494.264.689.47.193.206.346.459.455.759.109.301.164.646.164 1.035 0 .082-.012.138-.035.168-.023.029-.062.044-.113.044h-3.996v.105c0 .415.049.781.145 1.097.098.314.234.579.412.793.178.213.393.373.645.48.254.107.535.162.846.162.279 0 .52-.031.725-.092.203-.062.375-.131.514-.207.139-.075.25-.145.332-.205s.141-.092.178-.092c.049 0 .086.019.111.056l.145.178c-.09.111-.207.216-.354.312-.146.097-.311.18-.49.248s-.371.123-.578.164c-.205.041-.412.061-.621.061-.377 0-.723-.065-1.033-.197-.312-.131-.58-.323-.803-.576-.223-.252-.396-.561-.518-.926s-.184-.783-.184-1.255c0-.396.057-.763.17-1.099s.277-.625.49-.868.475-.433.785-.57c.308-.138.66-.207 1.054-.207zm.008.396c-.285 0-.541.044-.768.134-.227.088-.422.217-.586.383-.164.168-.299.367-.4.602s-.168.495-.203.785h3.645c0-.297-.039-.563-.121-.799s-.197-.436-.346-.598c-.146-.164-.324-.289-.533-.377-.207-.086-.436-.13-.688-.13z"/><path d="m93.178 73.069v-5.535h.289c.098 0 .152.046.168.139l.049.834c.254-.318.547-.575.883-.77s.709-.293 1.121-.293c.305 0 .572.049.805.145.23.098.424.236.576.418.15.182.266.4.344.656s.117.545.117.868v3.538h-.53v-3.538c0-.52-.117-.927-.355-1.222s-.602-.441-1.09-.441c-.363 0-.701.094-1.014.28-.311.188-.59.444-.834.771v4.15z"/><path d="m101.264 73.159c-.375 0-.666-.104-.873-.312-.209-.207-.312-.527-.312-.962v-3.784h-.795c-.041 0-.074-.011-.102-.033-.025-.021-.039-.053-.039-.094v-.206l.947-.067.131-1.98c.004-.033.018-.062.041-.089.025-.026.057-.039.098-.039h.248v2.114h1.74v.395h-1.74v3.756c0 .152.02.283.059.393.037.109.092.199.16.27s.15.123.242.156c.094.033.193.051.301.051.133 0 .248-.02.346-.059.096-.039.18-.082.25-.129.07-.046.127-.089.172-.127.045-.039.08-.059.105-.059.029 0 .059.018.09.055l.145.234c-.141.156-.32.281-.537.375-.218.093-.445.141-.677.141z"/><path d="m109.748 65.108c.248 0 .484.042.707.127.223.086.416.201.582.346.164.145.295.312.395.504.098.19.15.39.158.598-.053.011-.098.021-.139.033-.086.019-.152.027-.201.027-.029 0-.057-.011-.082-.033-.027-.021-.045-.054-.057-.094-.025-.098-.07-.209-.133-.334-.064-.127-.148-.245-.256-.356s-.242-.206-.404-.284-.352-.117-.57-.117c-.223 0-.424.035-.605.104-.184.068-.338.165-.469.289-.129.125-.23.271-.303.443-.072.17-.109.357-.109.562 0 .304.078.595.234.874.156.277.396.576.723.895l2.482 2.449c.166-.268.299-.546.398-.835.098-.29.162-.569.191-.841.008-.048.021-.086.045-.113.021-.028.055-.042.1-.042h.307c-.008.349-.074.708-.197 1.077-.125.369-.303.722-.531 1.06l1.656 1.624h-.494c-.066 0-.121-.007-.164-.021-.043-.016-.092-.049-.148-.101l-1.141-1.118c-.166.193-.35.371-.551.534-.199.163-.416.304-.65.42s-.482.208-.748.275-.545.101-.838.101c-.277 0-.553-.047-.822-.14-.271-.093-.514-.229-.727-.409s-.387-.4-.518-.662c-.133-.262-.197-.559-.197-.893 0-.268.047-.521.145-.766.096-.242.229-.465.395-.667.168-.202.365-.384.596-.542.23-.16.479-.29.746-.391-.264-.297-.461-.584-.594-.865-.131-.279-.197-.579-.197-.898 0-.26.047-.5.143-.721.094-.221.229-.412.402-.575s.383-.291.627-.384c.241-.094.512-.14.813-.14zm-2.537 5.914c0 .285.055.534.164.746.109.211.252.388.426.531s.367.249.582.319c.213.07.424.106.631.106.26 0 .506-.03.738-.09.23-.059.447-.142.65-.248.201-.105.387-.23.557-.375.168-.145.322-.305.465-.479l-2.555-2.51c-.021-.018-.043-.039-.061-.061-.246.104-.467.229-.666.373-.197.145-.365.305-.504.48-.137.177-.242.367-.316.57-.074.208-.111.42-.111.638z"/><path d="m117.938 73.069v-5.535h.289c.098 0 .152.046.168.139l.049.801c.109-.152.223-.291.346-.417s.254-.234.393-.325c.139-.092.287-.162.445-.212s.324-.075.498-.075c.404 0 .727.118.967.354.242.236.404.562.49.982.066-.23.16-.429.281-.596.119-.167.258-.305.414-.414.154-.109.324-.191.508-.245s.371-.081.564-.081c.273 0 .52.046.738.137s.404.225.559.403c.152.179.271.397.352.657.082.259.123.556.123.89v3.538h-.529v-3.538c0-.542-.115-.954-.35-1.238s-.568-.425-1.002-.425c-.193 0-.377.035-.553.105-.178.07-.332.175-.469.314-.135.139-.242.312-.322.52s-.119.449-.119.724v3.538h-.529v-3.538c0-.538-.107-.95-.322-1.235s-.529-.428-.939-.428c-.301 0-.58.09-.836.27s-.484.43-.684.748v4.184h-.53z"/><path d="m129.434 67.444c.312 0 .6.055.865.162s.496.264.689.47c.195.206.348.459.457.759.109.301.164.646.164 1.035 0 .082-.012.138-.037.168-.023.029-.061.044-.113.044h-3.994v.105c0 .415.047.781.145 1.097.096.314.232.579.41.793.18.213.395.373.646.48s.533.162.846.162c.277 0 .52-.031.723-.092.205-.062.377-.131.516-.207.139-.075.248-.145.33-.205s.141-.092.178-.092c.049 0 .086.019.111.056l.145.178c-.088.111-.205.216-.352.312-.146.097-.311.18-.49.248s-.373.123-.578.164c-.207.041-.414.061-.621.061-.379 0-.723-.065-1.035-.197-.311-.131-.578-.323-.803-.576-.223-.252-.395-.561-.516-.926-.123-.365-.184-.783-.184-1.255 0-.396.057-.763.17-1.099s.275-.625.49-.868c.213-.243.475-.433.783-.57.31-.138.662-.207 1.055-.207zm.007.396c-.285 0-.541.044-.766.134-.227.088-.422.217-.586.383-.166.168-.299.367-.4.602s-.17.495-.203.785h3.645c0-.297-.041-.563-.123-.799-.08-.236-.195-.436-.344-.598-.148-.164-.326-.289-.533-.377-.207-.086-.438-.13-.69-.13z"/><path d="m135.678 67.444c.311 0 .6.055.865.162.264.107.494.264.689.47.193.206.346.459.455.759.109.301.164.646.164 1.035 0 .082-.012.138-.035.168-.023.029-.062.044-.113.044h-3.996v.105c0 .415.049.781.145 1.097.098.314.234.579.412.793.178.213.393.373.645.48.254.107.535.162.846.162.279 0 .52-.031.725-.092.203-.062.375-.131.514-.207.139-.075.25-.145.332-.205s.141-.092.178-.092c.049 0 .086.019.111.056l.145.178c-.09.111-.207.216-.354.312-.146.097-.311.18-.49.248s-.371.123-.578.164c-.205.041-.412.061-.621.061-.377 0-.723-.065-1.033-.197-.312-.131-.58-.323-.803-.576-.223-.252-.396-.561-.518-.926s-.184-.783-.184-1.255c0-.396.057-.763.17-1.099s.277-.625.49-.868.475-.433.785-.57c.308-.138.659-.207 1.054-.207zm.008.396c-.285 0-.541.044-.768.134-.227.088-.422.217-.586.383-.164.168-.299.367-.4.602s-.168.495-.203.785h3.645c0-.297-.039-.563-.121-.799s-.197-.436-.346-.598c-.146-.164-.324-.289-.533-.377-.208-.086-.436-.13-.688-.13z"/><path d="m141.34 73.159c-.375 0-.666-.104-.873-.312-.207-.207-.312-.527-.312-.962v-3.784h-.795c-.041 0-.074-.011-.1-.033-.025-.021-.039-.053-.039-.094v-.206l.945-.067.133-1.98c.004-.033.018-.062.041-.089s.057-.039.096-.039h.248v2.114h1.742v.395h-1.742v3.756c0 .152.02.283.059.393s.092.199.162.27c.068.07.148.123.242.156.092.033.191.051.299.051.135 0 .25-.02.346-.059s.18-.082.25-.129c.07-.046.129-.089.174-.127.043-.039.078-.059.105-.059.029 0 .059.018.088.055l.145.234c-.141.156-.32.281-.537.375-.218.093-.443.141-.677.141z"/><path d="m145.273 65.625c0 .067-.014.13-.041.187-.027.058-.064.108-.109.153-.043.044-.096.079-.154.105-.061.026-.123.039-.189.039s-.131-.013-.189-.039c-.061-.026-.111-.062-.156-.105-.045-.045-.08-.096-.105-.153s-.039-.119-.039-.187c0-.066.014-.13.039-.192.025-.061.061-.113.105-.158s.096-.08.156-.105c.059-.025.123-.039.189-.039s.129.014.189.039c.059.025.111.061.154.105.045.045.082.098.109.158.028.062.041.126.041.192zm-.232 1.909v5.535h-.529v-5.535z"/><path d="m147.555 73.069v-5.535h.289c.098 0 .152.046.168.139l.049.834c.254-.318.547-.575.883-.77s.709-.293 1.121-.293c.305 0 .572.049.805.145.23.098.424.236.576.418.15.182.266.4.344.656s.117.545.117.868v3.538h-.529v-3.538c0-.52-.117-.927-.355-1.222s-.602-.441-1.09-.441c-.363 0-.701.094-1.014.28-.311.188-.59.444-.834.771v4.15z"/><path d="m155.957 67.438c.242 0 .465.03.67.09.207.059.391.143.555.25h1.418v.184c0 .093-.051.143-.154.15l-.842.061c.105.142.184.301.24.477.055.176.084.364.084.564 0 .268-.049.51-.145.727-.098.217-.232.402-.404.557-.172.153-.379.273-.621.358-.24.085-.508.128-.801.128-.318 0-.607-.049-.867-.145-.156.089-.279.194-.367.316-.09.123-.135.242-.135.356 0 .159.057.282.168.367s.258.147.441.187.395.064.629.075c.236.011.475.023.719.036.242.014.482.036.717.07.236.033.445.092.629.174.184.084.332.201.443.352s.166.35.166.598c0 .23-.057.451-.172.662s-.281.398-.498.562c-.217.162-.48.293-.787.393-.309.098-.654.146-1.035.146-.391 0-.73-.039-1.023-.119s-.539-.188-.738-.322c-.197-.137-.348-.293-.447-.471s-.15-.367-.15-.568c0-.293.096-.545.289-.756s.459-.375.795-.49c-.186-.062-.332-.153-.441-.271-.109-.119-.164-.285-.164-.496 0-.078.014-.159.045-.244.029-.086.074-.17.133-.254.059-.083.131-.162.215-.236.082-.074.18-.141.291-.2-.264-.151-.467-.354-.613-.606-.148-.252-.221-.547-.221-.885 0-.268.047-.509.143-.727.094-.217.227-.402.4-.559.172-.156.381-.276.625-.361.244-.087.513-.13.81-.13zm2.053 6.004c0-.174-.045-.314-.135-.42-.092-.105-.213-.188-.365-.248-.152-.059-.328-.101-.525-.125-.199-.023-.406-.041-.623-.053-.217-.011-.436-.021-.654-.033s-.424-.033-.611-.066c-.143.055-.273.119-.393.191-.121.072-.225.154-.309.245-.086.091-.152.19-.201.3s-.072.229-.072.359c0 .163.041.314.125.453.084.14.207.26.367.362.162.102.359.183.594.241.232.061.502.09.807.09.281 0 .543-.031.787-.095.242-.063.453-.152.633-.267.182-.115.322-.253.424-.412.1-.158.151-.332.151-.522zm-2.053-2.82c.238 0 .449-.035.635-.104s.342-.164.467-.286c.127-.122.223-.269.287-.44.064-.17.098-.359.098-.566 0-.208-.033-.398-.102-.57-.066-.173-.164-.32-.291-.443-.129-.122-.283-.217-.467-.283s-.393-.1-.627-.1-.443.033-.629.1-.342.161-.469.283c-.129.123-.227.271-.293.443s-.1.362-.1.57c0 .207.033.396.1.566.066.172.164.318.293.44.127.122.283.218.469.286s.395.104.629.104z"/><path d="m166.055 68.224c-.025.052-.066.078-.121.078-.041 0-.094-.023-.158-.07-.066-.046-.15-.098-.258-.155-.105-.058-.234-.109-.389-.155-.154-.047-.342-.07-.564-.07-.201 0-.383.029-.549.086-.164.058-.305.135-.422.23s-.209.208-.273.336c-.064.127-.098.262-.098.402 0 .174.045.318.135.433.088.114.205.213.35.294.145.082.309.152.492.211.184.06.373.119.564.178.193.06.383.125.566.197s.348.162.492.271c.145.107.262.239.35.396.09.155.135.344.135.566 0 .242-.045.466-.131.674-.088.207-.215.388-.379.539-.166.152-.369.273-.609.362-.242.089-.516.134-.824.134-.389 0-.725-.062-1.006-.187-.283-.124-.535-.286-.758-.487l.129-.189c.018-.029.039-.051.061-.066.023-.015.055-.021.096-.021.047 0 .107.029.178.088.07.061.162.124.275.192.113.069.254.133.422.192.17.059.377.089.627.089.232 0 .439-.032.617-.098s.326-.153.445-.265.209-.242.27-.392.092-.31.092-.476c0-.186-.045-.34-.133-.462-.09-.122-.207-.227-.352-.312-.145-.086-.309-.158-.492-.217-.184-.06-.373-.119-.568-.179-.193-.06-.383-.124-.566-.194s-.348-.16-.492-.268-.262-.238-.352-.393c-.088-.153-.133-.346-.133-.575 0-.196.043-.386.127-.567.086-.182.207-.342.365-.479s.35-.246.576-.328.48-.123.762-.123c.338 0 .637.049.898.146s.502.248.721.449z"/><path d="m168.348 75.028v-7.494h.289c.049 0 .088.01.117.03s.047.057.051.108l.049.857c.246-.334.533-.6.861-.797.328-.195.695-.295 1.104-.295.684 0 1.213.236 1.592.707s.566 1.178.566 2.12c0 .404-.053.782-.158 1.132-.105.352-.26.655-.465.913-.203.258-.455.461-.754.608-.299.148-.643.223-1.031.223-.379 0-.705-.068-.979-.205-.275-.137-.514-.342-.713-.612v2.704h-.529zm2.32-7.16c-.367 0-.699.095-.998.286-.299.19-.562.457-.793.798v2.904c.211.319.445.544.703.674s.553.195.883.195c.326 0 .611-.061.855-.179.246-.118.451-.286.615-.503.166-.218.289-.477.373-.779s.125-.635.125-.999c0-.823-.15-1.429-.453-1.817-.302-.386-.738-.58-1.31-.58z"/><path d="m178.391 73.069c-.111 0-.18-.051-.205-.155l-.078-.706c-.152.148-.303.281-.453.4-.15.118-.307.219-.471.301-.164.081-.34.143-.529.186-.188.043-.396.064-.623.064-.189 0-.373-.028-.551-.084s-.336-.141-.473-.256-.248-.262-.33-.442c-.084-.18-.125-.396-.125-.647 0-.234.066-.451.199-.651s.342-.375.627-.523c.283-.147.648-.267 1.096-.356.447-.088.984-.141 1.611-.155v-.579c0-.512-.111-.905-.332-1.182s-.549-.414-.982-.414c-.268 0-.494.037-.682.111s-.346.155-.475.244c-.131.089-.236.17-.318.244-.08.074-.15.111-.205.111-.074 0-.131-.033-.168-.1l-.094-.161c.289-.29.594-.509.912-.657.32-.148.682-.223 1.086-.223.297 0 .557.048.779.143.221.095.406.23.553.406s.256.389.33.64.111.53.111.837v3.605h-.21zm-2.225-.295c.215 0 .412-.022.592-.068.18-.047.348-.111.5-.195.154-.084.299-.183.432-.298.135-.114.266-.239.396-.372v-1.441c-.527.015-.98.055-1.361.119s-.693.153-.939.265c-.248.111-.43.243-.547.397-.115.154-.174.33-.174.525 0 .186.029.347.092.482.061.135.141.246.242.334.1.086.217.15.35.191s.272.061.417.061z"/><path d="m184.473 68.274c-.02.018-.037.033-.053.047-.018.013-.041.02-.07.02-.037 0-.088-.025-.152-.076-.066-.049-.152-.104-.26-.164-.107-.059-.242-.113-.402-.164-.162-.049-.357-.074-.588-.074-.318 0-.602.057-.848.17-.248.113-.455.275-.623.486-.17.211-.299.467-.387.768-.09.301-.135.639-.135 1.013 0 .39.047.734.137 1.035.092.3.221.554.387.759.168.207.369.363.607.471.236.107.5.162.789.162.268 0 .49-.032.67-.096.18-.062.328-.131.445-.205s.211-.143.279-.206.123-.095.164-.095c.047 0 .084.019.111.056l.145.178c-.086.111-.193.216-.322.312-.131.097-.277.18-.439.25-.164.071-.342.126-.533.164-.189.039-.389.059-.598.059-.352 0-.674-.063-.965-.191s-.541-.313-.752-.557c-.209-.242-.373-.541-.488-.893-.117-.353-.176-.753-.176-1.202 0-.423.055-.809.166-1.157s.273-.648.488-.901c.213-.252.475-.448.783-.587.311-.139.666-.209 1.066-.209.359 0 .68.059.959.173.281.114.525.271.732.468z"/><path d="m188.535 67.444c.311 0 .6.055.865.162.264.107.494.264.689.47.193.206.346.459.455.759.109.301.164.646.164 1.035 0 .082-.012.138-.035.168-.023.029-.062.044-.113.044h-3.996v.105c0 .415.049.781.145 1.097.098.314.234.579.412.793.178.213.393.373.645.48.254.107.535.162.846.162.279 0 .52-.031.725-.092.203-.062.375-.131.514-.207.139-.075.25-.145.332-.205s.141-.092.178-.092c.049 0 .086.019.111.056l.145.178c-.09.111-.207.216-.354.312-.146.097-.311.18-.49.248s-.371.123-.578.164c-.205.041-.412.061-.621.061-.377 0-.723-.065-1.033-.197-.312-.131-.58-.323-.803-.576-.223-.252-.396-.561-.518-.926s-.184-.783-.184-1.255c0-.396.057-.763.17-1.099s.277-.625.49-.868.475-.433.785-.57c.308-.138.66-.207 1.054-.207zm.008.396c-.285 0-.541.044-.768.134-.227.088-.422.217-.586.383-.164.168-.299.367-.4.602s-.168.495-.203.785h3.645c0-.297-.039-.563-.121-.799s-.197-.436-.346-.598c-.146-.164-.324-.289-.533-.377-.208-.086-.436-.13-.688-.13z"/></g><path d="m10.895 36.005h-1.024v-.371h2.494v.371h-1.029v3h-.441z" fill="#fff"/><path d="m15.326 35.634v1.41h1.629v-1.41h.439v3.371h-.439v-1.58h-1.629v1.58h-.436v-3.371z" fill="#fff"/><path d="m22.045 37.425h-1.309v1.215h1.459v.365h-1.895v-3.371h1.82v.365h-1.385v1.065h1.309v.361z" fill="#fff"/></svg>