<svg enable-background="new 0 0 70.508 70.508" height="70.508" viewBox="0 0 70.508 70.508" width="70.508" xmlns="http://www.w3.org/2000/svg"><g fill="#fff"><path d="m49.198 6.268c4.595 0 8.422 1.433 11.066 4.143 2.602 2.665 3.977 6.435 3.977 10.899v27.889c0 4.47-1.423 8.253-4.115 10.939-2.688 2.685-6.468 4.103-10.928 4.103h-27.887c-4.587 0-8.413-1.438-11.063-4.158-2.604-2.673-3.98-6.437-3.98-10.884v-27.889c0-9.138 6.151-15.042 15.67-15.042zm0-6.268h-27.26c-12.902 0-21.938 8.67-21.938 21.31v27.889c0 12.274 8.253 21.31 21.311 21.31h27.888c12.535 0 21.31-8.722 21.31-21.31v-27.889c-.001-12.327-8.253-21.31-21.311-21.31z"/><path d="m35.333 23.346c6.522 0 11.829 5.307 11.829 11.83 0 6.522-5.307 11.829-11.829 11.829-6.523 0-11.83-5.307-11.83-11.829 0-6.524 5.307-11.83 11.83-11.83m0-6.268c-9.995 0-18.098 8.103-18.098 18.098 0 9.994 8.103 18.097 18.098 18.097 9.994 0 18.097-8.103 18.097-18.097 0-9.995-8.103-18.098-18.097-18.098z"/><circle cx="53.978" cy="16.53" r="4.309"/></g></svg>